<svg width="35" height="35" viewBox="0 0 35 35" fill="none" xmlns="http://www.w3.org/2000/svg">
<path d="M12.2498 24.7917L17.4998 19.5417L22.7498 24.7917L24.7915 22.7501L19.5415 17.5001L24.7915 12.2501L22.7498 10.2084L17.4998 15.4584L12.2498 10.2084L10.2082 12.2501L15.4582 17.5001L10.2082 22.7501L12.2498 24.7917ZM17.4998 32.0834C15.4825 32.0834 13.5866 31.7006 11.8123 30.935C10.038 30.1694 8.49463 29.1303 7.18213 27.8178C5.86963 26.5053 4.83057 24.9619 4.06494 23.1876C3.29932 21.4133 2.9165 19.5174 2.9165 17.5001C2.9165 15.4827 3.29932 13.5869 4.06494 11.8126C4.83057 10.0383 5.86963 8.49487 7.18213 7.18237C8.49463 5.86987 10.038 4.83081 11.8123 4.06519C13.5866 3.29956 15.4825 2.91675 17.4998 2.91675C19.5172 2.91675 21.413 3.29956 23.1873 4.06519C24.9616 4.83081 26.505 5.86987 27.8175 7.18237C29.13 8.49487 30.1691 10.0383 30.9347 11.8126C31.7004 13.5869 32.0832 15.4827 32.0832 17.5001C32.0832 19.5174 31.7004 21.4133 30.9347 23.1876C30.1691 24.9619 29.13 26.5053 27.8175 27.8178C26.505 29.1303 24.9616 30.1694 23.1873 30.935C21.413 31.7006 19.5172 32.0834 17.4998 32.0834ZM17.4998 29.1667C20.7568 29.1667 23.5155 28.0365 25.7759 25.7761C28.0363 23.5157 29.1665 20.757 29.1665 17.5001C29.1665 14.2431 28.0363 11.4845 25.7759 9.22404C23.5155 6.96362 20.7568 5.83341 17.4998 5.83341C14.2429 5.83341 11.4842 6.96362 9.2238 9.22404C6.96338 11.4845 5.83317 14.2431 5.83317 17.5001C5.83317 20.757 6.96338 23.5157 9.2238 25.7761C11.4842 28.0365 14.2429 29.1667 17.4998 29.1667Z" fill="white"/>
</svg>
